<svg width="3224" height="32" viewBox="0 0 3224 32" fill="none" xmlns="http://www.w3.org/2000/svg">
<path d="M8.39999 0.672002V23.1H21.63V30.576H0V0.672002H8.39999Z" fill="black"/>
<path d="M32.5582 30.576H24.1582V0.672002H32.5582V30.576Z" fill="black"/>
<path d="M53.256 11.718L56.658 0.672002H65.31L55.104 30.576H45.024L34.44 0.672002H43.428L46.872 11.718C47.964 15.19 49.042 19.026 50.106 23.226C51.058 19.166 52.108 15.33 53.256 11.718Z" fill="black"/>
<path d="M90.7876 0.672002V8.148H75.5836V12.096H89.4436V19.068H75.5836V23.1H90.7876V30.576H67.1836V0.672002H90.7876Z" fill="black"/>
<path d="M123.117 12.012L125.973 0.672002H138.825V30.576H130.845V22.092C130.845 16.604 130.929 11.942 131.097 8.106C130.481 10.57 129.893 12.782 129.333 14.742L125.007 30.576H118.203L113.877 14.742C113.317 12.782 112.729 10.57 112.113 8.106C112.281 11.942 112.365 16.604 112.365 22.092V30.576H104.385V0.672002H117.237L120.093 12.012C120.821 14.924 121.325 17.066 121.605 18.438C121.885 17.066 122.389 14.924 123.117 12.012Z" fill="black"/>
<path d="M151.421 30.576H143.021V0.672002H151.421V30.576Z" fill="black"/>
<path d="M174.723 5.544V0.672002H182.703V30.576H173.841L167.499 19.95C165.791 17.066 164.419 14.602 163.383 12.558C163.523 16.674 163.593 21.056 163.593 25.704V30.576H155.613V0.672002H164.475L170.817 11.298C172.329 13.874 173.701 16.352 174.933 18.732C174.793 14.616 174.723 10.22 174.723 5.544Z" fill="black"/>
<path d="M185.228 0.672002H211.268V8.148H202.448V30.576H194.048V8.148H185.228V0.672002Z" fill="black"/>
<path d="M222.173 30.576H213.773V0.672002H222.173V30.576Z" fill="black"/>
<path d="M245.475 5.544V0.672002H253.455V30.576H244.593L238.251 19.95C236.543 17.066 235.171 14.602 234.135 12.558C234.275 16.674 234.345 21.056 234.345 25.704V30.576H226.365V0.672002H235.227L241.569 11.298C243.081 13.874 244.453 16.352 245.685 18.732C245.545 14.616 245.475 10.22 245.475 5.544Z" fill="black"/>
<path d="M272.864 19.824V13.44H287.018V30.576H281.306L280.466 26.67C279.542 28.154 278.226 29.288 276.518 30.072C274.81 30.856 272.906 31.248 270.806 31.248C266.438 31.248 262.952 29.834 260.348 27.006C257.716 24.206 256.4 20.412 256.4 15.624C256.4 10.836 257.772 7.028 260.516 4.2C263.232 1.4 267.026 0 271.898 0C275.958 0 279.304 0.966001 281.936 2.898C284.624 4.858 286.192 7.518 286.64 10.878H278.072C277.204 8.414 275.174 7.182 271.982 7.182C269.826 7.182 268.146 7.924 266.942 9.408C265.738 10.892 265.136 12.964 265.136 15.624C265.136 18.284 265.766 20.356 267.026 21.84C268.314 23.324 270.12 24.066 272.444 24.066C273.928 24.066 275.202 23.688 276.266 22.932C277.358 22.148 278.058 21.112 278.366 19.824H272.864Z" fill="black"/>
<circle cx="306.655" cy="15" r="7" fill="black"/>
<path d="M334.055 0.672002V23.1H347.285V30.576H325.655V0.672002H334.055Z" fill="black"/>
<path d="M358.213 30.576H349.813V0.672002H358.213V30.576Z" fill="black"/>
<path d="M378.911 11.718L382.313 0.672002H390.965L380.759 30.576H370.679L360.095 0.672002H369.083L372.527 11.718C373.619 15.19 374.697 19.026 375.761 23.226C376.713 19.166 377.763 15.33 378.911 11.718Z" fill="black"/>
<path d="M416.442 0.672002V8.148H401.238V12.096H415.098V19.068H401.238V23.1H416.442V30.576H392.838V0.672002H416.442Z" fill="black"/>
<path d="M448.772 12.012L451.628 0.672002H464.48V30.576H456.5V22.092C456.5 16.604 456.584 11.942 456.752 8.106C456.136 10.57 455.548 12.782 454.988 14.742L450.662 30.576H443.858L439.532 14.742C438.972 12.782 438.384 10.57 437.768 8.106C437.936 11.942 438.02 16.604 438.02 22.092V30.576H430.04V0.672002H442.892L445.748 12.012C446.476 14.924 446.98 17.066 447.26 18.438C447.54 17.066 448.044 14.924 448.772 12.012Z" fill="black"/>
<path d="M477.076 30.576H468.676V0.672002H477.076V30.576Z" fill="black"/>
<path d="M500.378 5.544V0.672002H508.358V30.576H499.496L493.154 19.95C491.446 17.066 490.074 14.602 489.038 12.558C489.178 16.674 489.248 21.056 489.248 25.704V30.576H481.268V0.672002H490.13L496.472 11.298C497.984 13.874 499.356 16.352 500.588 18.732C500.448 14.616 500.378 10.22 500.378 5.544Z" fill="black"/>
<path d="M510.883 0.672002H536.923V8.148H528.103V30.576H519.703V8.148H510.883V0.672002Z" fill="black"/>
<path d="M547.828 30.576H539.428V0.672002H547.828V30.576Z" fill="black"/>
<path d="M571.13 5.544V0.672002H579.11V30.576H570.248L563.906 19.95C562.198 17.066 560.826 14.602 559.79 12.558C559.93 16.674 560 21.056 560 25.704V30.576H552.02V0.672002H560.882L567.224 11.298C568.736 13.874 570.108 16.352 571.34 18.732C571.2 14.616 571.13 10.22 571.13 5.544Z" fill="black"/>
<path d="M598.519 19.824V13.44H612.673V30.576H606.961L606.121 26.67C605.197 28.154 603.881 29.288 602.173 30.072C600.465 30.856 598.561 31.248 596.461 31.248C592.093 31.248 588.607 29.834 586.003 27.006C583.371 24.206 582.055 20.412 582.055 15.624C582.055 10.836 583.427 7.028 586.171 4.2C588.887 1.4 592.681 0 597.553 0C601.613 0 604.959 0.966001 607.591 2.898C610.279 4.858 611.847 7.518 612.295 10.878H603.727C602.859 8.414 600.829 7.182 597.637 7.182C595.481 7.182 593.801 7.924 592.597 9.408C591.393 10.892 590.791 12.964 590.791 15.624C590.791 18.284 591.421 20.356 592.681 21.84C593.969 23.324 595.775 24.066 598.099 24.066C599.583 24.066 600.857 23.688 601.921 22.932C603.013 22.148 603.713 21.112 604.021 19.824H598.519Z" fill="black"/>
<circle cx="632.31" cy="15" r="7" fill="black"/>
<path d="M660.4 0.672002V23.1H673.63V30.576H652V0.672002H660.4Z" fill="black"/>
<path d="M684.558 30.576H676.158V0.672002H684.558V30.576Z" fill="black"/>
<path d="M705.256 11.718L708.658 0.672002H717.31L707.104 30.576H697.024L686.44 0.672002H695.428L698.872 11.718C699.964 15.19 701.042 19.026 702.106 23.226C703.058 19.166 704.108 15.33 705.256 11.718Z" fill="black"/>
<path d="M742.788 0.672002V8.148H727.584V12.096H741.444V19.068H727.584V23.1H742.788V30.576H719.184V0.672002H742.788Z" fill="black"/>
<path d="M775.117 12.012L777.973 0.672002H790.825V30.576H782.845V22.092C782.845 16.604 782.929 11.942 783.097 8.106C782.481 10.57 781.893 12.782 781.333 14.742L777.007 30.576H770.203L765.877 14.742C765.317 12.782 764.729 10.57 764.113 8.106C764.281 11.942 764.365 16.604 764.365 22.092V30.576H756.385V0.672002H769.237L772.093 12.012C772.821 14.924 773.325 17.066 773.605 18.438C773.885 17.066 774.389 14.924 775.117 12.012Z" fill="black"/>
<path d="M803.421 30.576H795.021V0.672002H803.421V30.576Z" fill="black"/>
<path d="M826.723 5.544V0.672002H834.703V30.576H825.841L819.499 19.95C817.791 17.066 816.419 14.602 815.383 12.558C815.523 16.674 815.593 21.056 815.593 25.704V30.576H807.613V0.672002H816.475L822.817 11.298C824.329 13.874 825.701 16.352 826.933 18.732C826.793 14.616 826.723 10.22 826.723 5.544Z" fill="black"/>
<path d="M837.228 0.672002H863.268V8.148H854.448V30.576H846.048V8.148H837.228V0.672002Z" fill="black"/>
<path d="M874.173 30.576H865.773V0.672002H874.173V30.576Z" fill="black"/>
<path d="M897.475 5.544V0.672002H905.455V30.576H896.593L890.251 19.95C888.543 17.066 887.171 14.602 886.135 12.558C886.275 16.674 886.345 21.056 886.345 25.704V30.576H878.365V0.672002H887.227L893.569 11.298C895.081 13.874 896.453 16.352 897.685 18.732C897.545 14.616 897.475 10.22 897.475 5.544Z" fill="black"/>
<path d="M924.864 19.824V13.44H939.018V30.576H933.306L932.466 26.67C931.542 28.154 930.226 29.288 928.518 30.072C926.81 30.856 924.906 31.248 922.806 31.248C918.438 31.248 914.952 29.834 912.348 27.006C909.716 24.206 908.4 20.412 908.4 15.624C908.4 10.836 909.772 7.028 912.516 4.2C915.232 1.4 919.026 0 923.898 0C927.958 0 931.304 0.966001 933.936 2.898C936.624 4.858 938.192 7.518 938.64 10.878H930.072C929.204 8.414 927.174 7.182 923.982 7.182C921.826 7.182 920.146 7.924 918.942 9.408C917.738 10.892 917.136 12.964 917.136 15.624C917.136 18.284 917.766 20.356 919.026 21.84C920.314 23.324 922.12 24.066 924.444 24.066C925.928 24.066 927.202 23.688 928.266 22.932C929.358 22.148 930.058 21.112 930.366 19.824H924.864Z" fill="black"/>
<circle cx="958.655" cy="15" r="7" fill="black"/>
<path d="M986.745 0.672002V23.1H999.975V30.576H978.345V0.672002H986.745Z" fill="black"/>
<path d="M1010.9 30.576H1002.5V0.672002H1010.9V30.576Z" fill="black"/>
<path d="M1031.6 11.718L1035 0.672002H1043.66L1033.45 30.576H1023.37L1012.79 0.672002H1021.77L1025.22 11.718C1026.31 15.19 1027.39 19.026 1028.45 23.226C1029.4 19.166 1030.45 15.33 1031.6 11.718Z" fill="black"/>
<path d="M1069.13 0.672002V8.148H1053.93V12.096H1067.79V19.068H1053.93V23.1H1069.13V30.576H1045.53V0.672002H1069.13Z" fill="black"/>
<path d="M1101.46 12.012L1104.32 0.672002H1117.17V30.576H1109.19V22.092C1109.19 16.604 1109.27 11.942 1109.44 8.106C1108.83 10.57 1108.24 12.782 1107.68 14.742L1103.35 30.576H1096.55L1092.22 14.742C1091.66 12.782 1091.07 10.57 1090.46 8.106C1090.63 11.942 1090.71 16.604 1090.71 22.092V30.576H1082.73V0.672002H1095.58L1098.44 12.012C1099.17 14.924 1099.67 17.066 1099.95 18.438C1100.23 17.066 1100.73 14.924 1101.46 12.012Z" fill="black"/>
<path d="M1129.77 30.576H1121.37V0.672002H1129.77V30.576Z" fill="black"/>
<path d="M1153.07 5.544V0.672002H1161.05V30.576H1152.19L1145.84 19.95C1144.14 17.066 1142.76 14.602 1141.73 12.558C1141.87 16.674 1141.94 21.056 1141.94 25.704V30.576H1133.96V0.672002H1142.82L1149.16 11.298C1150.67 13.874 1152.05 16.352 1153.28 18.732C1153.14 14.616 1153.07 10.22 1153.07 5.544Z" fill="black"/>
<path d="M1163.57 0.672002H1189.61V8.148H1180.79V30.576H1172.39V8.148H1163.57V0.672002Z" fill="black"/>
<path d="M1200.52 30.576H1192.12V0.672002H1200.52V30.576Z" fill="black"/>
<path d="M1223.82 5.544V0.672002H1231.8V30.576H1222.94L1216.6 19.95C1214.89 17.066 1213.52 14.602 1212.48 12.558C1212.62 16.674 1212.69 21.056 1212.69 25.704V30.576H1204.71V0.672002H1213.57L1219.91 11.298C1221.43 13.874 1222.8 16.352 1224.03 18.732C1223.89 14.616 1223.82 10.22 1223.82 5.544Z" fill="black"/>
<path d="M1251.21 19.824V13.44H1265.36V30.576H1259.65L1258.81 26.67C1257.89 28.154 1256.57 29.288 1254.86 30.072C1253.16 30.856 1251.25 31.248 1249.15 31.248C1244.78 31.248 1241.3 29.834 1238.69 27.006C1236.06 24.206 1234.75 20.412 1234.75 15.624C1234.75 10.836 1236.12 7.028 1238.86 4.2C1241.58 1.4 1245.37 0 1250.24 0C1254.3 0 1257.65 0.966001 1260.28 2.898C1262.97 4.858 1264.54 7.518 1264.99 10.878H1256.42C1255.55 8.414 1253.52 7.182 1250.33 7.182C1248.17 7.182 1246.49 7.924 1245.29 9.408C1244.08 10.892 1243.48 12.964 1243.48 15.624C1243.48 18.284 1244.11 20.356 1245.37 21.84C1246.66 23.324 1248.47 24.066 1250.79 24.066C1252.27 24.066 1253.55 23.688 1254.61 22.932C1255.7 22.148 1256.4 21.112 1256.71 19.824H1251.21Z" fill="black"/>
<circle cx="1285" cy="15" r="7" fill="black"/>
<path d="M1313.09 0.672002V23.1H1326.32V30.576H1304.69V0.672002H1313.09Z" fill="black"/>
<path d="M1337.25 30.576H1328.85V0.672002H1337.25V30.576Z" fill="black"/>
<path d="M1357.95 11.718L1361.35 0.672002H1370L1359.79 30.576H1349.71L1339.13 0.672002H1348.12L1351.56 11.718C1352.65 15.19 1353.73 19.026 1354.8 23.226C1355.75 19.166 1356.8 15.33 1357.95 11.718Z" fill="black"/>
<path d="M1395.48 0.672002V8.148H1380.27V12.096H1394.13V19.068H1380.27V23.1H1395.48V30.576H1371.87V0.672002H1395.48Z" fill="black"/>
<path d="M1427.81 12.012L1430.66 0.672002H1443.52V30.576H1435.54V22.092C1435.54 16.604 1435.62 11.942 1435.79 8.106C1435.17 10.57 1434.58 12.782 1434.02 14.742L1429.7 30.576H1422.89L1418.57 14.742C1418.01 12.782 1417.42 10.57 1416.8 8.106C1416.97 11.942 1417.06 16.604 1417.06 22.092V30.576H1409.08V0.672002H1421.93L1424.78 12.012C1425.51 14.924 1426.02 17.066 1426.3 18.438C1426.58 17.066 1427.08 14.924 1427.81 12.012Z" fill="black"/>
<path d="M1456.11 30.576H1447.71V0.672002H1456.11V30.576Z" fill="black"/>
<path d="M1479.41 5.544V0.672002H1487.39V30.576H1478.53L1472.19 19.95C1470.48 17.066 1469.11 14.602 1468.07 12.558C1468.21 16.674 1468.28 21.056 1468.28 25.704V30.576H1460.3V0.672002H1469.17L1475.51 11.298C1477.02 13.874 1478.39 16.352 1479.62 18.732C1479.48 14.616 1479.41 10.22 1479.41 5.544Z" fill="black"/>
<path d="M1489.92 0.672002H1515.96V8.148H1507.14V30.576H1498.74V8.148H1489.92V0.672002Z" fill="black"/>
<path d="M1526.86 30.576H1518.46V0.672002H1526.86V30.576Z" fill="black"/>
<path d="M1550.17 5.544V0.672002H1558.15V30.576H1549.28L1542.94 19.95C1541.23 17.066 1539.86 14.602 1538.83 12.558C1538.97 16.674 1539.04 21.056 1539.04 25.704V30.576H1531.06V0.672002H1539.92L1546.26 11.298C1547.77 13.874 1549.14 16.352 1550.38 18.732C1550.24 14.616 1550.17 10.22 1550.17 5.544Z" fill="black"/>
<path d="M1577.55 19.824V13.44H1591.71V30.576H1586L1585.16 26.67C1584.23 28.154 1582.92 29.288 1581.21 30.072C1579.5 30.856 1577.6 31.248 1575.5 31.248C1571.13 31.248 1567.64 29.834 1565.04 27.006C1562.41 24.206 1561.09 20.412 1561.09 15.624C1561.09 10.836 1562.46 7.028 1565.21 4.2C1567.92 1.4 1571.72 0 1576.59 0C1580.65 0 1583.99 0.966001 1586.63 2.898C1589.31 4.858 1590.88 7.518 1591.33 10.878H1582.76C1581.89 8.414 1579.86 7.182 1576.67 7.182C1574.52 7.182 1572.84 7.924 1571.63 9.408C1570.43 10.892 1569.83 12.964 1569.83 15.624C1569.83 18.284 1570.46 20.356 1571.72 21.84C1573 23.324 1574.81 24.066 1577.13 24.066C1578.62 24.066 1579.89 23.688 1580.96 22.932C1582.05 22.148 1582.75 21.112 1583.06 19.824H1577.55Z" fill="black"/>
<circle cx="1611.35" cy="15" r="7" fill="black"/>
<path d="M1639.44 0.672002V23.1H1652.67V30.576H1631.04V0.672002H1639.44Z" fill="black"/>
<path d="M1663.59 30.576H1655.19V0.672002H1663.59V30.576Z" fill="black"/>
<path d="M1684.29 11.718L1687.69 0.672002H1696.35L1686.14 30.576H1676.06L1665.48 0.672002H1674.46L1677.91 11.718C1679 15.19 1680.08 19.026 1681.14 23.226C1682.09 19.166 1683.14 15.33 1684.29 11.718Z" fill="black"/>
<path d="M1721.82 0.672002V8.148H1706.62V12.096H1720.48V19.068H1706.62V23.1H1721.82V30.576H1698.22V0.672002H1721.82Z" fill="black"/>
<path d="M1754.15 12.012L1757.01 0.672002H1769.86V30.576H1761.88V22.092C1761.88 16.604 1761.96 11.942 1762.13 8.106C1761.52 10.57 1760.93 12.782 1760.37 14.742L1756.04 30.576H1749.24L1744.91 14.742C1744.35 12.782 1743.76 10.57 1743.15 8.106C1743.32 11.942 1743.4 16.604 1743.4 22.092V30.576H1735.42V0.672002H1748.27L1751.13 12.012C1751.86 14.924 1752.36 17.066 1752.64 18.438C1752.92 17.066 1753.42 14.924 1754.15 12.012Z" fill="black"/>
<path d="M1782.46 30.576H1774.06V0.672002H1782.46V30.576Z" fill="black"/>
<path d="M1805.76 5.544V0.672002H1813.74V30.576H1804.88L1798.53 19.95C1796.83 17.066 1795.45 14.602 1794.42 12.558C1794.56 16.674 1794.63 21.056 1794.63 25.704V30.576H1786.65V0.672002H1795.51L1801.85 11.298C1803.36 13.874 1804.74 16.352 1805.97 18.732C1805.83 14.616 1805.76 10.22 1805.76 5.544Z" fill="black"/>
<path d="M1816.26 0.672002H1842.3V8.148H1833.48V30.576H1825.08V8.148H1816.26V0.672002Z" fill="black"/>
<path d="M1853.21 30.576H1844.81V0.672002H1853.21V30.576Z" fill="black"/>
<path d="M1876.51 5.544V0.672002H1884.49V30.576H1875.63L1869.29 19.95C1867.58 17.066 1866.21 14.602 1865.17 12.558C1865.31 16.674 1865.38 21.056 1865.38 25.704V30.576H1857.4V0.672002H1866.26L1872.6 11.298C1874.12 13.874 1875.49 16.352 1876.72 18.732C1876.58 14.616 1876.51 10.22 1876.51 5.544Z" fill="black"/>
<path d="M1903.9 19.824V13.44H1918.05V30.576H1912.34L1911.5 26.67C1910.58 28.154 1909.26 29.288 1907.55 30.072C1905.85 30.856 1903.94 31.248 1901.84 31.248C1897.47 31.248 1893.99 29.834 1891.38 27.006C1888.75 24.206 1887.44 20.412 1887.44 15.624C1887.44 10.836 1888.81 7.028 1891.55 4.2C1894.27 1.4 1898.06 0 1902.93 0C1906.99 0 1910.34 0.966001 1912.97 2.898C1915.66 4.858 1917.23 7.518 1917.68 10.878H1909.11C1908.24 8.414 1906.21 7.182 1903.02 7.182C1900.86 7.182 1899.18 7.924 1897.98 9.408C1896.77 10.892 1896.17 12.964 1896.17 15.624C1896.17 18.284 1896.8 20.356 1898.06 21.84C1899.35 23.324 1901.16 24.066 1903.48 24.066C1904.96 24.066 1906.24 23.688 1907.3 22.932C1908.39 22.148 1909.09 21.112 1909.4 19.824H1903.9Z" fill="black"/>
<circle cx="1937.69" cy="15" r="7" fill="black"/>
<path d="M1965.78 0.672002V23.1H1979.01V30.576H1957.38V0.672002H1965.78Z" fill="black"/>
<path d="M1989.94 30.576H1981.54V0.672002H1989.94V30.576Z" fill="black"/>
<path d="M2010.64 11.718L2014.04 0.672002H2022.69L2012.48 30.576H2002.4L1991.82 0.672002H2000.81L2004.25 11.718C2005.34 15.19 2006.42 19.026 2007.49 23.226C2008.44 19.166 2009.49 15.33 2010.64 11.718Z" fill="black"/>
<path d="M2048.17 0.672002V8.148H2032.96V12.096H2046.82V19.068H2032.96V23.1H2048.17V30.576H2024.56V0.672002H2048.17Z" fill="black"/>
<path d="M2080.5 12.012L2083.35 0.672002H2096.21V30.576H2088.23V22.092C2088.23 16.604 2088.31 11.942 2088.48 8.106C2087.86 10.57 2087.27 12.782 2086.71 14.742L2082.39 30.576H2075.58L2071.26 14.742C2070.7 12.782 2070.11 10.57 2069.49 8.106C2069.66 11.942 2069.75 16.604 2069.75 22.092V30.576H2061.77V0.672002H2074.62L2077.47 12.012C2078.2 14.924 2078.71 17.066 2078.99 18.438C2079.27 17.066 2079.77 14.924 2080.5 12.012Z" fill="black"/>
<path d="M2108.8 30.576H2100.4V0.672002H2108.8V30.576Z" fill="black"/>
<path d="M2132.1 5.544V0.672002H2140.08V30.576H2131.22L2124.88 19.95C2123.17 17.066 2121.8 14.602 2120.76 12.558C2120.9 16.674 2120.97 21.056 2120.97 25.704V30.576H2112.99V0.672002H2121.86L2128.2 11.298C2129.71 13.874 2131.08 16.352 2132.31 18.732C2132.17 14.616 2132.1 10.22 2132.1 5.544Z" fill="black"/>
<path d="M2142.61 0.672002H2168.65V8.148H2159.83V30.576H2151.43V8.148H2142.61V0.672002Z" fill="black"/>
<path d="M2179.55 30.576H2171.15V0.672002H2179.55V30.576Z" fill="black"/>
<path d="M2202.86 5.544V0.672002H2210.84V30.576H2201.97L2195.63 19.95C2193.92 17.066 2192.55 14.602 2191.52 12.558C2191.66 16.674 2191.73 21.056 2191.73 25.704V30.576H2183.75V0.672002H2192.61L2198.95 11.298C2200.46 13.874 2201.83 16.352 2203.07 18.732C2202.93 14.616 2202.86 10.22 2202.86 5.544Z" fill="black"/>
<path d="M2230.25 19.824V13.44H2244.4V30.576H2238.69L2237.85 26.67C2236.92 28.154 2235.61 29.288 2233.9 30.072C2232.19 30.856 2230.29 31.248 2228.19 31.248C2223.82 31.248 2220.33 29.834 2217.73 27.006C2215.1 24.206 2213.78 20.412 2213.78 15.624C2213.78 10.836 2215.15 7.028 2217.9 4.2C2220.61 1.4 2224.41 0 2229.28 0C2233.34 0 2236.69 0.966001 2239.32 2.898C2242.01 4.858 2243.57 7.518 2244.02 10.878H2235.45C2234.59 8.414 2232.56 7.182 2229.36 7.182C2227.21 7.182 2225.53 7.924 2224.32 9.408C2223.12 10.892 2222.52 12.964 2222.52 15.624C2222.52 18.284 2223.15 20.356 2224.41 21.84C2225.7 23.324 2227.5 24.066 2229.83 24.066C2231.31 24.066 2232.58 23.688 2233.65 22.932C2234.74 22.148 2235.44 21.112 2235.75 19.824H2230.25Z" fill="black"/>
<circle cx="2264.04" cy="15" r="7" fill="black"/>
<path d="M2292.13 0.672002V23.1H2305.36V30.576H2283.73V0.672002H2292.13Z" fill="black"/>
<path d="M2316.28 30.576H2307.88V0.672002H2316.28V30.576Z" fill="black"/>
<path d="M2336.98 11.718L2340.38 0.672002H2349.04L2338.83 30.576H2328.75L2318.17 0.672002H2327.15L2330.6 11.718C2331.69 15.19 2332.77 19.026 2333.83 23.226C2334.78 19.166 2335.83 15.33 2336.98 11.718Z" fill="black"/>
<path d="M2374.51 0.672002V8.148H2359.31V12.096H2373.17V19.068H2359.31V23.1H2374.51V30.576H2350.91V0.672002H2374.51Z" fill="black"/>
<path d="M2406.84 12.012L2409.7 0.672002H2422.55V30.576H2414.57V22.092C2414.57 16.604 2414.65 11.942 2414.82 8.106C2414.21 10.57 2413.62 12.782 2413.06 14.742L2408.73 30.576H2401.93L2397.6 14.742C2397.04 12.782 2396.45 10.57 2395.84 8.106C2396.01 11.942 2396.09 16.604 2396.09 22.092V30.576H2388.11V0.672002H2400.96L2403.82 12.012C2404.55 14.924 2405.05 17.066 2405.33 18.438C2405.61 17.066 2406.11 14.924 2406.84 12.012Z" fill="black"/>
<path d="M2435.15 30.576H2426.75V0.672002H2435.15V30.576Z" fill="black"/>
<path d="M2458.45 5.544V0.672002H2466.43V30.576H2457.57L2451.23 19.95C2449.52 17.066 2448.15 14.602 2447.11 12.558C2447.25 16.674 2447.32 21.056 2447.32 25.704V30.576H2439.34V0.672002H2448.2L2454.54 11.298C2456.06 13.874 2457.43 16.352 2458.66 18.732C2458.52 14.616 2458.45 10.22 2458.45 5.544Z" fill="black"/>
<path d="M2468.95 0.672002H2494.99V8.148H2486.17V30.576H2477.77V8.148H2468.95V0.672002Z" fill="black"/>
<path d="M2505.9 30.576H2497.5V0.672002H2505.9V30.576Z" fill="black"/>
<path d="M2529.2 5.544V0.672002H2537.18V30.576H2528.32L2521.98 19.95C2520.27 17.066 2518.9 14.602 2517.86 12.558C2518 16.674 2518.07 21.056 2518.07 25.704V30.576H2510.09V0.672002H2518.95L2525.3 11.298C2526.81 13.874 2528.18 16.352 2529.41 18.732C2529.27 14.616 2529.2 10.22 2529.2 5.544Z" fill="black"/>
<path d="M2556.59 19.824V13.44H2570.74V30.576H2565.03L2564.19 26.67C2563.27 28.154 2561.95 29.288 2560.24 30.072C2558.54 30.856 2556.63 31.248 2554.53 31.248C2550.16 31.248 2546.68 29.834 2544.07 27.006C2541.44 24.206 2540.13 20.412 2540.13 15.624C2540.13 10.836 2541.5 7.028 2544.24 4.2C2546.96 1.4 2550.75 0 2555.62 0C2559.68 0 2563.03 0.966001 2565.66 2.898C2568.35 4.858 2569.92 7.518 2570.37 10.878H2561.8C2560.93 8.414 2558.9 7.182 2555.71 7.182C2553.55 7.182 2551.87 7.924 2550.67 9.408C2549.46 10.892 2548.86 12.964 2548.86 15.624C2548.86 18.284 2549.49 20.356 2550.75 21.84C2552.04 23.324 2553.85 24.066 2556.17 24.066C2557.65 24.066 2558.93 23.688 2559.99 22.932C2561.08 22.148 2561.78 21.112 2562.09 19.824H2556.59Z" fill="black"/>
<circle cx="2590.38" cy="15" r="7" fill="black"/>
<path d="M2618.47 0.672002V23.1H2631.7V30.576H2610.07V0.672002H2618.47Z" fill="black"/>
<path d="M2642.63 30.576H2634.23V0.672002H2642.63V30.576Z" fill="black"/>
<path d="M2663.33 11.718L2666.73 0.672002H2675.38L2665.18 30.576H2655.1L2644.51 0.672002H2653.5L2656.94 11.718C2658.04 15.19 2659.11 19.026 2660.18 23.226C2661.13 19.166 2662.18 15.33 2663.33 11.718Z" fill="black"/>
<path d="M2700.86 0.672002V8.148H2685.65V12.096H2699.51V19.068H2685.65V23.1H2700.86V30.576H2677.25V0.672002H2700.86Z" fill="black"/>
<path d="M2733.19 12.012L2736.04 0.672002H2748.9V30.576H2740.92V22.092C2740.92 16.604 2741 11.942 2741.17 8.106C2740.55 10.57 2739.96 12.782 2739.4 14.742L2735.08 30.576H2728.27L2723.95 14.742C2723.39 12.782 2722.8 10.57 2722.18 8.106C2722.35 11.942 2722.44 16.604 2722.44 22.092V30.576H2714.46V0.672002H2727.31L2730.16 12.012C2730.89 14.924 2731.4 17.066 2731.68 18.438C2731.96 17.066 2732.46 14.924 2733.19 12.012Z" fill="black"/>
<path d="M2761.49 30.576H2753.09V0.672002H2761.49V30.576Z" fill="black"/>
<path d="M2784.79 5.544V0.672002H2792.77V30.576H2783.91L2777.57 19.95C2775.86 17.066 2774.49 14.602 2773.45 12.558C2773.59 16.674 2773.66 21.056 2773.66 25.704V30.576H2765.68V0.672002H2774.55L2780.89 11.298C2782.4 13.874 2783.77 16.352 2785 18.732C2784.86 14.616 2784.79 10.22 2784.79 5.544Z" fill="black"/>
<path d="M2795.3 0.672002H2821.34V8.148H2812.52V30.576H2804.12V8.148H2795.3V0.672002Z" fill="black"/>
<path d="M2832.24 30.576H2823.84V0.672002H2832.24V30.576Z" fill="black"/>
<path d="M2855.55 5.544V0.672002H2863.53V30.576H2854.66L2848.32 19.95C2846.61 17.066 2845.24 14.602 2844.21 12.558C2844.35 16.674 2844.42 21.056 2844.42 25.704V30.576H2836.44V0.672002H2845.3L2851.64 11.298C2853.15 13.874 2854.52 16.352 2855.76 18.732C2855.62 14.616 2855.55 10.22 2855.55 5.544Z" fill="black"/>
<path d="M2882.94 19.824V13.44H2897.09V30.576H2891.38L2890.54 26.67C2889.61 28.154 2888.3 29.288 2886.59 30.072C2884.88 30.856 2882.98 31.248 2880.88 31.248C2876.51 31.248 2873.02 29.834 2870.42 27.006C2867.79 24.206 2866.47 20.412 2866.47 15.624C2866.47 10.836 2867.84 7.028 2870.59 4.2C2873.3 1.4 2877.1 0 2881.97 0C2886.03 0 2889.38 0.966001 2892.01 2.898C2894.7 4.858 2896.26 7.518 2896.71 10.878H2888.14C2887.28 8.414 2885.25 7.182 2882.05 7.182C2879.9 7.182 2878.22 7.924 2877.01 9.408C2875.81 10.892 2875.21 12.964 2875.21 15.624C2875.21 18.284 2875.84 20.356 2877.1 21.84C2878.39 23.324 2880.19 24.066 2882.52 24.066C2884 24.066 2885.27 23.688 2886.34 22.932C2887.43 22.148 2888.13 21.112 2888.44 19.824H2882.94Z" fill="black"/>
<circle cx="2916.73" cy="15" r="7" fill="black"/>
<path d="M2944.82 0.672002V23.1H2958.05V30.576H2936.42V0.672002H2944.82Z" fill="black"/>
<path d="M2968.97 30.576H2960.57V0.672002H2968.97V30.576Z" fill="black"/>
<path d="M2989.67 11.718L2993.07 0.672002H3001.73L2991.52 30.576H2981.44L2970.86 0.672002H2979.84L2983.29 11.718C2984.38 15.19 2985.46 19.026 2986.52 23.226C2987.47 19.166 2988.52 15.33 2989.67 11.718Z" fill="black"/>
<path d="M3027.2 0.672002V8.148H3012V12.096H3025.86V19.068H3012V23.1H3027.2V30.576H3003.6V0.672002H3027.2Z" fill="black"/>
<path d="M3059.53 12.012L3062.39 0.672002H3075.24V30.576H3067.26V22.092C3067.26 16.604 3067.35 11.942 3067.51 8.106C3066.9 10.57 3066.31 12.782 3065.75 14.742L3061.42 30.576H3054.62L3050.29 14.742C3049.73 12.782 3049.15 10.57 3048.53 8.106C3048.7 11.942 3048.78 16.604 3048.78 22.092V30.576H3040.8V0.672002H3053.65L3056.51 12.012C3057.24 14.924 3057.74 17.066 3058.02 18.438C3058.3 17.066 3058.81 14.924 3059.53 12.012Z" fill="black"/>
<path d="M3087.84 30.576H3079.44V0.672002H3087.84V30.576Z" fill="black"/>
<path d="M3111.14 5.544V0.672002H3119.12V30.576H3110.26L3103.92 19.95C3102.21 17.066 3100.84 14.602 3099.8 12.558C3099.94 16.674 3100.01 21.056 3100.01 25.704V30.576H3092.03V0.672002H3100.89L3107.23 11.298C3108.75 13.874 3110.12 16.352 3111.35 18.732C3111.21 14.616 3111.14 10.22 3111.14 5.544Z" fill="black"/>
<path d="M3121.64 0.672002H3147.68V8.148H3138.86V30.576H3130.46V8.148H3121.64V0.672002Z" fill="black"/>
<path d="M3158.59 30.576H3150.19V0.672002H3158.59V30.576Z" fill="black"/>
<path d="M3181.89 5.544V0.672002H3189.87V30.576H3181.01L3174.67 19.95C3172.96 17.066 3171.59 14.602 3170.55 12.558C3170.69 16.674 3170.76 21.056 3170.76 25.704V30.576H3162.78V0.672002H3171.64L3177.99 11.298C3179.5 13.874 3180.87 16.352 3182.1 18.732C3181.96 14.616 3181.89 10.22 3181.89 5.544Z" fill="black"/>
<path d="M3209.28 19.824V13.44H3223.43V30.576H3217.72L3216.88 26.67C3215.96 28.154 3214.64 29.288 3212.93 30.072C3211.23 30.856 3209.32 31.248 3207.22 31.248C3202.85 31.248 3199.37 29.834 3196.76 27.006C3194.13 24.206 3192.82 20.412 3192.82 15.624C3192.82 10.836 3194.19 7.028 3196.93 4.2C3199.65 1.4 3203.44 0 3208.31 0C3212.37 0 3215.72 0.966001 3218.35 2.898C3221.04 4.858 3222.61 7.518 3223.06 10.878H3214.49C3213.62 8.414 3211.59 7.182 3208.4 7.182C3206.24 7.182 3204.56 7.924 3203.36 9.408C3202.15 10.892 3201.55 12.964 3201.55 15.624C3201.55 18.284 3202.18 20.356 3203.44 21.84C3204.73 23.324 3206.54 24.066 3208.86 24.066C3210.34 24.066 3211.62 23.688 3212.68 22.932C3213.77 22.148 3214.47 21.112 3214.78 19.824H3209.28Z" fill="black"/>
</svg>
